<?xml version="1.0" standalone="no"?>
<!DOCTYPE svg PUBLIC "-//W3C//DTD SVG 20010904//EN"
 "http://www.w3.org/TR/2001/REC-SVG-20010904/DTD/svg10.dtd">
<svg version="1.0" xmlns="http://www.w3.org/2000/svg"
 width="421.000000pt" height="421.000000pt" viewBox="0 0 421.000000 421.000000"
 preserveAspectRatio="xMidYMid meet">
<metadata>
Created by potrace 1.14, written by Peter Selinger 2001-2017
</metadata>
<g transform="translate(0.000000,421.000000) scale(0.100000,-0.100000)"
fill="#000000" stroke="none">
<path d="M909 4200 l-24 -5 1 -270 c1 -148 2 -275 3 -280 1 -6 38 -10 94 -10
l92 0 1 86 c0 47 3 90 7 95 3 6 41 10 84 9 l78 -1 2 -89 c1 -50 2 -92 2 -95 1
-3 43 -6 94 -5 l92 0 3 283 2 282 -25 1 c-95 3 -156 1 -161 -4 -4 -4 -6 -45
-6 -92 1 -47 -2 -86 -6 -86 -4 -1 -40 -2 -80 -3 -88 -2 -90 0 -85 102 3 59 1
73 -12 78 -20 8 -124 11 -156 4z"/>
<path d="M1524 4201 c-2 -2 -4 -46 -4 -96 l0 -92 83 0 82 1 0 -187 c0 -158 2
-186 15 -189 8 -2 51 -4 95 -4 l80 1 2 170 c0 94 2 179 2 190 1 18 8 20 83 20
l82 0 1 93 1 92 -25 1 c-137 3 -494 3 -497 0z"/>
<path d="M2160 4200 l-35 -5 0 -277 c0 -179 3 -278 10 -279 5 -1 47 -2 93 -3
l82 -2 1 30 c0 17 0 78 -1 136 l-1 105 20 -22 c12 -12 21 -25 21 -28 0 -3 21
-37 47 -76 l47 -70 63 98 62 98 3 -135 3 -135 95 0 95 0 0 283 0 282 -30 1
c-33 1 -117 1 -151 0 -16 -1 -36 -25 -79 -96 -32 -52 -59 -95 -60 -95 -2 0
-29 43 -60 95 -34 55 -65 95 -74 96 -95 3 -121 3 -151 -1z"/>
<path d="M2885 4200 l-28 -5 -1 -263 c-1 -145 2 -271 5 -280 6 -16 28 -17 220
-16 118 1 219 2 224 3 14 1 14 181 0 182 -5 1 -63 2 -127 3 -64 1 -120 5 -124
9 -4 4 -7 88 -6 187 2 166 1 180 -15 181 -10 0 -41 1 -69 2 -27 1 -63 0 -79
-3z"/>
<path d="M615 3296 c4 -44 8 -92 10 -106 3 -22 11 -108 20 -225 8 -101 16
-192 20 -215 2 -14 6 -63 10 -110 4 -47 8 -98 10 -115 1 -16 5 -66 9 -110 4
-44 9 -100 11 -125 13 -137 23 -252 30 -330 3 -36 8 -90 11 -120 2 -30 7 -80
10 -110 5 -62 12 -135 19 -212 3 -29 7 -82 10 -118 3 -36 7 -87 10 -115 2 -27
7 -79 10 -115 10 -124 16 -185 20 -220 2 -19 7 -71 10 -115 8 -99 12 -144 19
-215 3 -30 8 -86 11 -125 8 -90 16 -149 21 -154 2 -2 163 -48 356 -102 194
-54 369 -103 388 -109 62 -18 292 -81 383 -105 l89 -23 81 23 c175 51 1034
288 1074 297 23 5 46 15 51 21 6 7 13 55 17 107 3 52 8 106 10 120 4 28 14
136 20 220 2 30 6 73 9 95 2 22 7 78 11 125 3 47 8 101 10 120 2 19 7 69 10
110 3 41 8 91 10 110 5 39 11 107 20 225 3 44 8 96 10 115 2 19 7 67 10 105 3
39 8 93 11 120 3 28 7 77 10 110 2 33 6 80 8 105 3 25 8 79 11 120 3 41 8 91
10 110 2 19 7 69 10 110 3 41 8 91 10 110 2 19 7 69 10 110 4 41 8 95 10 120
3 25 7 77 10 115 3 39 8 86 10 105 4 33 6 65 21 240 4 41 8 82 9 91 3 15 -115
17 -1487 16 l-1490 0 7 -81z"/>
</g>
</svg>
